<svg xmlns="http://www.w3.org/2000/svg" width="512" height="512" viewBox="0 0 512 512">
    <defs>
        <linearGradient id="prefix__a" x1="15.212%" x2="84.788%" y1="0%" y2="100%">
            <stop offset="0%" stop-color="#EC1B68"/>
            <stop offset="100%" stop-color="#FC0512"/>
        </linearGradient>
    </defs>
    <g fill="none" fill-rule="evenodd">
        <path fill="#FFF" fill-opacity="0" d="M0 0H512V512H0z"/>
        <path fill="#FFF" d="M176 0c97.202 0 176 78.723 176 175.833 0 59.284-31.722 117.387-84.023 172.541-17.934 18.912-37.096 36.141-56.263 51.39-6.72 5.346-12.972 10.07-18.603 14.134-3.432 2.476-5.932 4.206-7.348 5.149-5.912 3.937-13.614 3.937-19.526 0l-.332-.223c-1.46-.98-3.838-2.634-7.016-4.926-5.631-4.064-11.883-8.788-18.603-14.134-19.167-15.249-38.33-32.478-56.263-51.39C31.723 293.22 0 235.117 0 175.834 0 78.723 78.798 0 176 0z" transform="translate(80 45)"/>
        <path fill="url(#prefix__a)" d="M176 0c97.202 0 176 78.723 176 175.833 0 59.284-31.722 117.387-84.023 172.541-17.934 18.912-37.096 36.141-56.263 51.39-6.72 5.346-12.972 10.07-18.603 14.134-3.432 2.476-5.932 4.206-7.348 5.149-5.912 3.937-13.614 3.937-19.526 0l-.332-.223c-1.46-.98-3.838-2.634-7.016-4.926-5.631-4.064-11.883-8.788-18.603-14.134-19.167-15.249-38.33-32.478-56.263-51.39C31.723 293.22 0 235.117 0 175.834 0 78.723 78.798 0 176 0zm1 117c-30.376 0-55 26.64-55 59.5s24.624 59.5 55 59.5 55-26.64 55-59.5-24.624-59.5-55-59.5z" transform="translate(80 45)"/>
    </g>
</svg>
